<?xml version="1.0" encoding="UTF-8" standalone="no"?>
<!-- Created with Inkscape (http://www.inkscape.org/) -->

<svg
   xmlns:dc="http://purl.org/dc/elements/1.1/"
   xmlns:cc="http://creativecommons.org/ns#"
   xmlns:rdf="http://www.w3.org/1999/02/22-rdf-syntax-ns#"
   xmlns:svg="http://www.w3.org/2000/svg"
   xmlns="http://www.w3.org/2000/svg"
   xmlns:sodipodi="http://sodipodi.sourceforge.net/DTD/sodipodi-0.dtd"
   xmlns:inkscape="http://www.inkscape.org/namespaces/inkscape"
   width="96"
   height="96"
   viewBox="0 0 96.000001 96.000002"
   id="svg2"
   version="1.1"
   inkscape:version="0.91 r13725"
   sodipodi:docname="rock.svg"
   inkscape:export-filename="/Users/Ryan/Desktop/RPSLS/rock.png"
   inkscape:export-xdpi="90"
   inkscape:export-ydpi="90">
  <defs
     id="defs4" />
  <sodipodi:namedview
     id="base"
     pagecolor="#ffffff"
     bordercolor="#666666"
     borderopacity="1.0"
     inkscape:pageopacity="0.0"
     inkscape:pageshadow="2"
     inkscape:zoom="2.7589218"
     inkscape:cx="38.859447"
     inkscape:cy="42.512467"
     inkscape:document-units="px"
     inkscape:current-layer="layer1"
     showgrid="false"
     units="px"
     inkscape:window-width="1440"
     inkscape:window-height="777"
     inkscape:window-x="0"
     inkscape:window-y="0"
     inkscape:window-maximized="1" />
  <metadata
     id="metadata7">
    <rdf:RDF>
      <cc:Work
         rdf:about="">
        <dc:format>image/svg+xml</dc:format>
        <dc:type
           rdf:resource="http://purl.org/dc/dcmitype/StillImage" />
        <dc:title />
      </cc:Work>
    </rdf:RDF>
  </metadata>
  <g
     inkscape:label="Calque 1"
     inkscape:groupmode="layer"
     id="layer1"
     transform="translate(0,-956.36216)">
    <path
       style="opacity:1;fill:#e14747;fill-opacity:1;stroke:none;stroke-width:6;stroke-miterlimit:4;stroke-dasharray:none;stroke-opacity:1"
       id="path4412"
       d="m 49.524009,1030.6999 c -0.301917,-0.5231 -0.532864,-1.0812 -0.789678,-1.6267 -0.379742,-0.8694 -0.767451,-1.7351 -1.151579,-2.6025 -0.456835,-1.0415 -0.948682,-2.0668 -1.408014,-3.107 -0.473885,-1.0216 -0.954198,-2.0401 -1.436942,-3.0576 -0.391178,-0.7568 -0.793353,-1.508 -1.272614,-2.2132 -0.450514,-0.6751 -0.951252,-1.3151 -1.453032,-1.9526 -0.501579,-0.6323 -1.064217,-1.2125 -1.629292,-1.7876 -0.563635,-0.5693 -1.186735,-1.0817 -1.830335,-1.5583 -0.677313,-0.559 -1.442,-0.99 -2.204233,-1.4188 -0.877933,-0.4684 -1.778754,-0.8877 -2.706268,-1.2476 -1.083964,-0.4788 -2.230599,-0.7832 -3.367879,-1.1051 -1.294962,-0.3259 -2.613025,-0.5373 -3.934787,-0.7174 -5.205664,-2.1017 -2.901651,-7.8086 2.304014,-5.7069 l 0,0 c 1.531228,0.2742 3.057842,0.5927 4.538084,1.0784 1.308954,0.4184 2.586562,0.9157 3.833664,1.4943 1.078212,0.5151 2.144814,1.0564 3.165087,1.6803 0.926639,0.5785 1.817407,1.2102 2.655338,1.9123 0.776319,0.6503 1.540847,1.3151 2.23368,2.0557 0.683308,0.7149 1.337862,1.4593 1.933183,2.2496 0.555684,0.7346 1.100203,1.477 1.617449,2.2393 0.589877,0.8913 1.144941,1.8064 1.643516,2.7522 0.548724,1.0672 1.065886,2.1502 1.555983,3.2456 0.470434,1.0638 0.941195,2.1276 1.380861,3.2046 0.361282,0.8993 0.715469,1.8014 1.042984,2.7138 0.187285,0.5357 0.387988,1.0683 0.521231,1.6209 1.6915,4.7801 -3.548921,6.6345 -5.240421,1.8543 z"
       inkscape:connector-curvature="0" />
    <path
       style="opacity:1;fill:#e14747;fill-opacity:1;stroke:none;stroke-width:6;stroke-miterlimit:4;stroke-dasharray:none;stroke-opacity:1"
       id="path4418"
       d="m 58.155738,1019.2209 c -0.259789,-0.4406 -0.503071,-0.891 -0.751643,-1.3383 -0.561476,-1.0073 -1.175865,-1.9839 -1.805235,-2.9497 -0.780703,-1.2351 -1.599054,-2.4458 -2.401707,-3.6667 -0.756947,-1.1342 -1.510591,-2.2714 -2.307694,-3.378 -0.705984,-1.0214 -1.476795,-1.9953 -2.292287,-2.9309 -0.816609,-0.9431 -1.763132,-1.7489 -2.73631,-2.5231 -1.219627,-0.952 -2.517368,-1.794 -3.838903,-2.59581 -1.580039,-0.89899 -3.225976,-1.67963 -4.892735,-2.4032 -1.676188,-0.76399 -3.406712,-1.39266 -5.178395,-1.89304 -1.314578,-0.39055 -2.673052,-0.55663 -4.033512,-0.68134 -5.397555,-1.92559 -3.286541,-7.84288 2.111014,-5.91728 l 0,0 c 1.674351,0.20686 3.335662,0.50088 4.949084,1.00715 1.982303,0.6237 3.921962,1.36747 5.808764,2.24067 1.866268,0.87889 3.723826,1.79638 5.430798,2.96303 1.463461,0.98502 2.901176,2.01251 4.22299,3.18438 1.132044,1.00738 2.211924,2.07144 3.185542,3.23494 0.885673,1.0617 1.736336,2.1512 2.538968,3.2775 0.828327,1.1607 1.639355,2.3337 2.447268,3.5087 0.851646,1.2683 1.713056,2.5309 2.477303,3.855 0.657685,1.1478 1.296882,2.3101 1.766911,3.5502 0.268717,0.6698 0.542358,1.3453 0.691539,2.0536 1.279019,4.9182 -4.112741,6.3204 -5.39176,1.4022 z"
       inkscape:connector-curvature="0" />
    <path
       style="opacity:1;fill:#e14747;fill-opacity:1;stroke:none;stroke-width:6;stroke-miterlimit:4;stroke-dasharray:none;stroke-opacity:1"
       id="path4420"
       d="m 62.951704,1007.08 c -0.256522,-0.3048 -0.501306,-0.7842 -0.748335,-1.1953 -0.425927,-0.8165 -1.003302,-1.5391 -1.58881,-2.2453 -0.920545,-1.1172 -1.910051,-2.176 -2.872828,-3.2568 -1.099606,-1.18189 -2.149224,-2.40883 -3.239001,-3.59959 -0.994608,-1.06915 -1.993722,-2.13466 -3.032003,-3.16165 -0.926915,-0.94285 -1.92928,-1.79489 -2.980532,-2.59401 -1.012644,-0.7793 -2.11318,-1.43453 -3.236226,-2.04007 -1.149628,-0.59773 -2.337904,-1.1162 -3.534253,-1.61237 -0.921099,-0.33611 -1.809504,-0.75211 -2.720065,-1.11329 -4.605814,-2.88789 -1.439858,-7.93719 3.165957,-5.04931 l 0,0 c 0.969046,0.36325 1.954842,0.68131 2.911219,1.07818 1.383423,0.581 2.743615,1.222 4.049253,1.96304 1.310524,0.77776 2.592854,1.60384 3.785515,2.55568 1.179339,0.94443 2.299469,1.95683 3.374216,3.01895 1.107477,1.08127 2.172462,2.20471 3.236462,3.32859 1.126761,1.21388 2.249459,2.43226 3.334075,3.68414 1.041555,1.20125 2.069028,2.41932 2.967015,3.73361 0.662809,0.9971 1.307668,2.007 1.773261,3.115 0.236885,0.5641 0.504178,1.1535 0.612268,1.7563 1.490591,4.7955 -3.766598,6.4296 -5.257188,1.6342 z"
       inkscape:connector-curvature="0" />
    <path
       style="opacity:1;fill:#e14747;fill-opacity:1;stroke:none;stroke-width:6;stroke-miterlimit:4;stroke-dasharray:none;stroke-opacity:1"
       id="path4422"
       d="m 66.092993,996.06393 c -0.08031,-0.5506 -0.0988,-1.10772 -0.126029,-1.66282 -0.04592,-0.72071 -0.176641,-1.42746 -0.338629,-2.12973 -0.175193,-0.84033 -0.439113,-1.65689 -0.750542,-2.45571 -0.342102,-0.95025 -0.803888,-1.84576 -1.269205,-2.73927 -0.550807,-0.9921 -1.272955,-1.86877 -2.008532,-2.7269 -0.90946,-1.035 -1.912542,-1.98323 -2.954597,-2.88273 -1.083786,-0.9462 -2.169085,-1.89108 -3.275917,-2.81031 -0.964803,-0.77558 -1.901711,-1.58781 -2.895944,-2.32594 -0.579194,-0.43147 -0.292126,-0.22642 -0.860096,-0.61668 -3.933076,-3.76943 0.199311,-8.08122 4.132386,-4.31179 l 0,0 c 0.657,0.46656 0.333477,0.23518 0.970687,0.69397 1.066307,0.78679 2.126306,1.58252 3.151445,2.42275 1.180696,0.95223 2.333299,1.93849 3.474925,2.93712 1.212337,1.11592 2.38851,2.27524 3.396357,3.58362 0.912704,1.17771 1.765237,2.40302 2.413987,3.74964 0.523931,1.07655 1.005466,2.17376 1.39252,3.30783 0.362054,1.0419 0.676092,2.10089 0.893092,3.18346 0.188039,1.03053 0.344075,2.06963 0.329102,3.12067 -0.02723,0.5551 -0.04572,1.11222 -0.126028,1.66282 0,5.06157 -5.548982,5.06157 -5.548982,0 z"
       inkscape:connector-curvature="0" />
    <path
       style="opacity:1;fill:#e14747;fill-opacity:1;stroke:none;stroke-width:6;stroke-miterlimit:4;stroke-dasharray:none;stroke-opacity:1"
       id="path4424"
       d="m 48.417904,1042.3634 c -1.060537,0.1643 -2.145602,0.092 -3.210918,0.074 -1.073622,0.021 -2.124291,-0.2064 -3.16276,-0.4507 -1.365907,-0.3231 -2.621934,-0.9732 -3.854739,-1.625 -1.398982,-0.7977 -2.637645,-1.821 -3.805504,-2.921 -1.215907,-1.1832 -2.269445,-2.5185 -3.250174,-3.8989 -0.888039,-1.264 -1.677165,-2.5969 -2.408617,-3.9567 -0.560796,-1.0817 -1.101863,-2.172 -1.569139,-3.2975 -0.362104,-0.9128 -0.672622,-1.8443 -0.963654,-2.7818 -0.182512,-0.6034 -0.332124,-1.2154 -0.479307,-1.8281 -1.106771,-5.1151 4.500876,-6.3284 5.607647,-1.2133 l 0,0 c 0.144715,0.507 0.313821,1.0072 0.494965,1.5023 0.272112,0.7714 0.564236,1.5372 0.907478,2.28 0.459733,0.9517 0.964564,1.8803 1.513303,2.7838 0.704347,1.1633 1.454301,2.2984 2.242161,3.407 0.803787,1.0857 1.636618,2.1619 2.623613,3.0892 0.858667,0.7753 1.753417,1.5179 2.790633,2.0459 0.842985,0.441 1.697412,0.8697 2.643218,1.0393 0.767021,0.155 1.540915,0.2204 2.321441,0.2692 -2.529989,0 -0.409667,-0.014 0.180378,0.1075 4.902582,-1.2587 6.282558,4.1159 1.379975,5.3747 z"
       inkscape:connector-curvature="0" />
  </g>
  <g
     inkscape:groupmode="layer"
     id="layer2"
     inkscape:label="trace" />
</svg>
